<?xml version="1.0" encoding="iso-8859-1"?>
<!-- Generator: Adobe Illustrator 19.0.0, SVG Export Plug-In . SVG Version: 6.00 Build 0)  -->
<svg version="1.1" id="Capa_1" xmlns="http://www.w3.org/2000/svg" xmlns:xlink="http://www.w3.org/1999/xlink" x="0px" y="0px"
	 viewBox="0 0 512.031 512.031" style="enable-background:new 0 0 512.031 512.031;" xml:space="preserve">
<circle style="fill:#90CAF9;" cx="256.031" cy="144.022" r="128"/>
<path style="fill:#FFC107;" d="M432.031,224.022h-16l-159.68,57.6l-0.32,214.4c1.866,0.002,3.718-0.323,5.472-0.96l176-96
	c6.323-2.301,10.53-8.312,10.528-15.04v-144C448.031,231.185,440.868,224.022,432.031,224.022z"/>
<path style="fill:#FFB300;" d="M80.031,224.022h16l159.68,57.6l0.32,214.4c-1.866,0.002-3.718-0.323-5.472-0.96l-176-96
	c-6.323-2.301-10.53-8.312-10.528-15.04v-144C64.031,231.185,71.195,224.022,80.031,224.022z"/>
<g>
	<polygon style="fill:#FFD54F;" points="66.911,184.022 256.351,297.622 192.351,336.022 0.031,224.022 	"/>
	<polygon style="fill:#FFD54F;" points="512.031,224.022 320.671,336.022 256.351,297.622 445.471,184.022 	"/>
</g>
<path d="M320.031,336.022c-2.809,0-5.568-0.74-8-2.144L76.831,197.91c-7.67-4.418-10.306-14.218-5.888-21.888
	c4.418-7.67,14.218-10.306,21.888-5.888l227.424,131.52l142.016-78.048l-87.232-50.784c-7.946-3.865-11.255-13.44-7.389-21.387
	c3.865-7.946,13.44-11.255,21.387-7.389c0.695,0.338,1.364,0.726,2.003,1.16l111.648,64.928c7.647,4.428,10.256,14.217,5.827,21.864
	c-1.463,2.526-3.589,4.603-6.147,6.008l-174.72,96C325.316,335.302,322.698,335.995,320.031,336.022z"/>
<path d="M190.751,336.022c-2.697-0.001-5.35-0.683-7.712-1.984l-174.72-96c-7.746-4.252-10.58-13.978-6.328-21.725
	c1.404-2.559,3.482-4.685,6.008-6.147l112.96-65.568c7.83-4.096,17.498-1.069,21.594,6.761c3.854,7.367,1.423,16.458-5.594,20.919
	l-88.48,51.2l142.08,78.176l155.328-89.6c0.427-0.311,0.876-0.589,1.344-0.832l70.72-40.992c7.682-4.368,17.45-1.681,21.817,6
	c4.327,7.61,1.735,17.284-5.817,21.712l-69.664,40.288c-0.452,0.345-0.922,0.666-1.408,0.96l-164.128,94.688
	C196.319,335.282,193.56,336.022,190.751,336.022z"/>
<path d="M16.031,240.022C7.195,240.039,0.017,232.89,0,224.053c-0.011-5.727,3.04-11.024,7.999-13.887l112.96-65.568
	c7.83-4.096,17.498-1.069,21.594,6.761c3.854,7.367,1.423,16.459-5.594,20.919l-112.896,65.6
	C21.622,239.288,18.851,240.027,16.031,240.022z"/>
<path d="M256.031,512.022c-2.677,0-5.309-0.683-7.648-1.984l-176-96c-5.136-2.795-8.338-8.169-8.352-14.016v-140.8
	c0-8.837,7.163-16,16-16s16,7.163,16,16v131.2l160,87.296l160-87.296v-131.84c0-8.837,7.163-16,16-16s16,7.163,16,16v141.44
	c-0.014,5.847-3.216,11.221-8.352,14.016l-176,96C261.34,511.338,258.708,512.021,256.031,512.022z"/>
<path d="M256.031,512.022L256.031,512.022c-8.837,0-16-7.163-16-16v-213.76c0-8.837,7.163-16,16-16l0,0c8.837,0,16,7.163,16,16
	v213.76C272.031,504.858,264.868,512.022,256.031,512.022z"/>
<path d="M158.111,242.262h-0.32c-4.372,0.009-8.558-1.771-11.584-4.928c-18.18-22.015-29.674-48.777-33.12-77.12
	c-0.714-5.368-1.066-10.777-1.056-16.192c0-79.529,64.471-144,144-144s144,64.471,144,144c0.016,5.735-0.347,11.465-1.088,17.152
	c-3.118,27.175-14.006,52.873-31.36,74.016c-6.49,6.35-16.829,6.463-23.456,0.256c-6.067-5.596-6.449-15.05-0.853-21.117
	c0.193-0.209,0.392-0.413,0.597-0.611c12.968-16.25,21.058-35.846,23.328-56.512c0.565-4.372,0.843-8.776,0.832-13.184
	c0-61.856-50.144-112-112-112s-112,50.144-112,112c-0.004,4.109,0.263,8.214,0.8,12.288c2.552,21.439,10.992,41.753,24.384,58.688
	c6.222,6.275,6.179,16.405-0.095,22.627C166.187,240.534,162.242,242.195,158.111,242.262L158.111,242.262z"/>
<path d="M256.031,288.022c-8.325,0.023-16.635-0.695-24.832-2.144c-7.967-0.253-14.22-6.916-13.967-14.883
	c0.012-0.373,0.038-0.746,0.079-1.117c0.402-9.11,8.113-16.17,17.224-15.768c1.556,0.069,3.094,0.357,4.568,0.856
	c11.413,1.76,23.04,1.598,34.4-0.48c8.997-1.49,17.498,4.595,18.988,13.592c0.116,0.701,0.187,1.41,0.212,2.12
	c0,8.837-7.163,16-16,16h-0.192C269.775,287.571,262.905,288.183,256.031,288.022z"/>
<path d="M384.031,160.022h-256c-8.837,0-16-7.163-16-16s7.163-16,16-16h256c8.837,0,16,7.163,16,16S392.868,160.022,384.031,160.022
	z"/>
<path d="M256.031,288.022c-8.837,0.009-16.007-7.148-16.016-15.984c-0.004-3.877,1.4-7.624,3.952-10.544
	c58.499-67.39,58.499-167.554,0-234.944c-5.814-6.663-5.127-16.778,1.536-22.592c6.663-5.814,16.778-5.127,22.592,1.536
	c68.899,79.502,68.899,197.554,0,277.056C265.053,286.031,260.654,288.026,256.031,288.022z"/>
<path d="M256.031,288.022c-4.623,0.005-9.022-1.991-12.064-5.472c-68.899-79.502-68.899-197.554,0-277.056
	c5.814-6.663,15.929-7.35,22.592-1.536c6.663,5.814,7.35,15.929,1.536,22.592l0,0c-58.499,67.39-58.499,167.554,0,234.944
	c5.814,6.654,5.134,16.762-1.52,22.576C263.655,286.621,259.909,288.026,256.031,288.022z"/>
<g>
</g>
<g>
</g>
<g>
</g>
<g>
</g>
<g>
</g>
<g>
</g>
<g>
</g>
<g>
</g>
<g>
</g>
<g>
</g>
<g>
</g>
<g>
</g>
<g>
</g>
<g>
</g>
<g>
</g>
</svg>
